<svg xmlns="http://www.w3.org/2000/svg" viewBox="0 0 256 256">
  <title>Tap and Hold</title>
  <style>:root {
  --line: #17212b;
  --accent: #006d77;
  --transform: #c2410c;
}
.stroke {
  fill: none;
  stroke: var(--line);
  stroke-width: 5;
  stroke-linecap: round;
  stroke-linejoin: round;
}
.thin {
  fill: none;
  stroke: var(--line);
  stroke-width: 3.2;
  stroke-linecap: round;
  stroke-linejoin: round;
}
.clock {
  fill: none;
  stroke: var(--line);
  stroke-width: 7;
  stroke-linecap: round;
  stroke-linejoin: round;
}
.fill {
  fill: var(--line);
}
.soft {
  fill: #e5e9ee;
  stroke: #8b98a5;
  stroke-width: 2.8;
}
.ghost {
  fill: #eef1f4;
  stroke: #a6b0ba;
  stroke-width: 3;
  opacity: 0.65;
}
.accent {
  stroke: var(--accent);
}
.accent-fill {
  fill: var(--accent);
}
.transform {
  stroke: var(--transform);
}
.transform-fill {
  fill: var(--transform);
}
.gridline {
  fill: none;
  stroke: var(--line);
  stroke-width: 2.2;
  stroke-linecap: round;
  stroke-linejoin: round;
}
.gridline-accent {
  fill: none;
  stroke: var(--accent);
  stroke-width: 2.2;
  stroke-linecap: round;
  stroke-linejoin: round;
}
.mini-text {
  font-size: 15px;
  font-weight: 800;
  font-family: -apple-system, BlinkMacSystemFont, "Segoe UI", sans-serif;
  fill: var(--line);
  text-anchor: middle;
}
.tiny-text {
  font-size: 11px;
  font-weight: 800;
  font-family: -apple-system, BlinkMacSystemFont, "Segoe UI", sans-serif;
  fill: var(--line);
  text-anchor: middle;
}
.tiny-text.accent-fill {
  fill: var(--accent);
}
</style>
          <path class="fill" d="M196,88a27.86,27.86,0,0,0-13.35,3.39A28,28,0,0,0,144,74.7V44a28,28,0,0,0-56,0v80l-3.82-6.13A28,28,0,0,0,35.73,146l4.67,8.23C74.81,214.89,89.05,240,136,240a88.1,88.1,0,0,0,88-88V116A28,28,0,0,0,196,88Zm12,64a72.08,72.08,0,0,1-72,72c-37.63,0-47.84-18-81.68-77.68l-4.69-8.27,0-.05A12,12,0,0,1,54,121.61a11.88,11.88,0,0,1,6-1.6,12,12,0,0,1,10.41,6,1.76,1.76,0,0,0,.14.23l18.67,30A8,8,0,0,0,104,152V44a12,12,0,0,1,24,0v68a8,8,0,0,0,16,0V100a12,12,0,0,1,24,0v20a8,8,0,0,0,16,0v-4a12,12,0,0,1,24,0Z"></path>
          <path class="fill accent-fill" d="M195,4 H205 A2,2 0 0 1 207,6 V12 A2,2 0 0 1 205,14 H195 A2,2 0 0 1 193,12 V6 A2,2 0 0 1 195,4 Z"></path>
          <path class="clock accent" d="M168,48 A32,32 0 1 0 232,48 A32,32 0 1 0 168,48 Z"></path>
          <path class="clock accent" d="M200,48 L220,33"></path>
          <path class="fill accent-fill" d="M196,48 A4,4 0 1 0 204,48 A4,4 0 1 0 196,48 Z"></path>
        </svg>
